<?xml version="1.0" encoding="UTF-8" standalone="no"?>
<!DOCTYPE svg PUBLIC "-//W3C//DTD SVG 1.1//EN" "http://www.w3.org/Graphics/SVG/1.1/DTD/svg11.dtd">
<svg width="100%" height="100%" viewBox="0 0 243 290" version="1.1" xmlns="http://www.w3.org/2000/svg" xmlns:xlink="http://www.w3.org/1999/xlink" xml:space="preserve" xmlns:serif="http://www.serif.com/" style="fill-rule:evenodd;clip-rule:evenodd;stroke-linejoin:round;stroke-miterlimit:2;">
    <rect id="Artboard1" x="0" y="0" width="243" height="290" style="fill:none;"/>
    <g id="AtlasZK-Logo" serif:id="AtlasZK Logo">
        <path d="M60.634,194.081L60.488,194.325C39.83,176.782 25.952,150.584 25.952,121.386C25.952,68.619 68.792,25.778 121.559,25.778C174.326,25.778 217.167,68.619 217.167,121.386C217.167,150.529 204.099,176.644 183.509,194.186L172.398,175.395C173.257,171.604 177.422,166.187 181.753,165.956C186.615,165.697 186.528,154.02 186.567,151.052C186.607,148.084 192.053,147.415 194.995,143.267C197.938,139.12 198.117,119.764 196.606,119.716C195.577,121.598 194.884,132.58 193.478,132.771C192.071,132.963 190.054,127.839 189.923,121.311C189.792,114.782 184.503,112.03 182.287,111.988C180.071,111.945 178.632,112.577 178.323,115.365C178.014,118.153 176.795,123.62 167.949,124.348C159.103,125.076 156.115,113.606 155.118,109.549C153.326,113.203 156.484,128.462 165.465,127.09C174.446,125.718 172.196,132.19 172.196,135.27C172.196,138.295 160.537,149.564 157.814,150.729L122.118,90.359L94.796,135.308C94.393,135.324 94.125,135.37 94.01,135.449C92.227,136.687 86.901,133.533 85.564,130.426C84.227,127.319 87.361,118.909 87.361,114.503C87.361,110.096 93.219,103.115 98.193,101.034C103.167,98.952 98.354,96.609 96.396,95.6C94.438,94.591 94.721,87.199 97.437,86.86C100.153,86.52 105.173,87.45 105.417,83.186C105.661,78.922 97.83,81.74 97.162,79.269C96.495,76.798 104.494,69.142 106.965,69.142C109.436,69.142 108.985,71.713 108.985,73.584C108.985,75.456 112.788,78.776 114.807,78.328C116.825,77.881 117.993,67.327 117.953,64.917C117.914,62.507 120.89,57.32 123.529,56.823C126.167,56.327 127.497,57.889 130.257,57.92C133.018,57.951 137.198,55.53 139.665,55.237C142.133,54.945 143.156,58.573 143.503,59.964C143.849,61.355 147.436,62.896 150.92,63.073C154.403,63.251 158.782,59.099 158.594,58.258C158.407,57.417 146.264,46.836 121.925,46.836C97.587,46.836 83.232,57.349 82.165,58.048C81.098,58.748 83.091,60.455 83.091,61.857C83.091,63.259 82.385,64.726 82.175,66.773C81.964,68.82 84.441,74.24 84.441,75.223C84.441,76.207 77.94,77.151 75.259,77.151C72.579,77.151 72.085,81.77 71.863,84.945C71.641,88.12 62.487,87.23 61.778,88.047C61.068,88.865 61.912,90.147 57.477,92.62C53.043,95.093 47.346,100.594 46.899,118.409C46.452,136.224 53.304,132.864 55.301,133.992C57.298,135.12 55.963,136.499 55.963,138.385C55.963,140.271 58.249,143.616 61.039,144.789C63.829,145.962 63.263,143.891 66.983,143.891C70.702,143.891 72.768,149.013 72.768,149.013C72.768,149.013 73.909,157.164 73.322,159.493C72.735,161.822 74.029,164.329 74.718,167.146C75.407,169.962 73.391,171.594 71.13,172.567C69.358,173.329 70.215,175.529 70.669,176.447L60.555,193.722L60.634,194.081Z"/>
        <path d="M45.371,239.855L122.021,110.465L197.991,239.855L155.193,239.855L122.021,183.68L88.236,239.855L45.371,239.855Z"/>
        <path d="M122.021,218.493L100.451,239.855L122.021,264.352L143.785,239.855L122.021,218.493Z"/>
    </g>
</svg>
