<svg width="100%" height="100%" viewBox="0 0 1441 1146" version="1.1" xmlns="http://www.w3.org/2000/svg" xmlns:xlink="http://www.w3.org/1999/xlink" xml:space="preserve" xmlns:serif="http://www.serif.com/" style="fill-rule:evenodd;clip-rule:evenodd;stroke-linejoin:round;stroke-miterlimit:2;"><rect id="Artboard1" x="0" y="0" width="1440.95" height="1145.22" style="fill:none;"/><g><path d="M1035.11,255.742c0.014,-0 0.028,-0 0.042,-0c37.738,-0 68.792,-31.054 68.792,-68.792c-0,-37.738 -31.054,-68.792 -68.792,-68.792c-37.738,0 -68.792,31.054 -68.792,68.792c0.023,37.713 31.037,68.746 68.75,68.792Z" style="fill:#fff;fill-rule:nonzero;"/><path d="M401.943,255.742c0.013,-0 0.027,-0 0.041,-0c37.738,-0 68.792,-31.054 68.792,-68.792c-0,-37.738 -31.054,-68.792 -68.792,-68.792c-37.738,0 -68.791,31.054 -68.791,68.792c0.022,37.713 31.036,68.746 68.75,68.792Z" style="fill:#fff;fill-rule:nonzero;"/><path d="M1035.11,605.283c-37.715,0 -68.75,31.035 -68.75,68.75c0,37.715 31.035,68.75 68.75,68.75c37.715,0 68.75,-31.035 68.75,-68.75c-0.045,-37.698 -31.052,-68.704 -68.75,-68.75Z" style="fill:#fff;fill-rule:nonzero;"/><path d="M707.515,411.289c37.454,-6.079 72.798,19.393 78.877,56.846c6.08,37.454 -19.392,72.798 -56.846,78.878c-37.454,6.079 -72.798,-19.393 -78.877,-56.846c-6.08,-37.454 19.392,-72.798 56.846,-78.878Z" style="fill:#fff;"/><path d="M718.526,897.492c-37.715,-0 -68.75,31.034 -68.75,68.75c-0,37.715 31.035,68.75 68.75,68.75c37.715,-0 68.75,-31.035 68.75,-68.75c-0.046,-37.698 -31.052,-68.705 -68.75,-68.75Z" style="fill:#fff;fill-rule:nonzero;"/><path d="M109.693,897.492c-37.715,-0 -68.75,31.034 -68.75,68.75c-0,37.715 31.035,68.75 68.75,68.75c37.715,-0 68.75,-31.035 68.75,-68.75c-0,-0.042 -0,-0.084 -0,-0.125c-0.114,-37.651 -31.1,-68.58 -68.75,-68.625Z" style="fill:#fff;fill-rule:nonzero;"/><path d="M1327.32,897.492c-37.7,0.022 -68.709,31.05 -68.709,68.75c0,37.715 31.035,68.75 68.75,68.75c37.716,-0 68.75,-31.035 68.75,-68.75c0,-0.042 0,-0.084 0,-0.125c-0.114,-37.667 -31.125,-68.603 -68.791,-68.625Z" style="fill:#fff;fill-rule:nonzero;"/><path d="M401.943,605.283c-37.716,0 -68.75,31.035 -68.75,68.75c-0,37.715 31.034,68.75 68.75,68.75c37.715,0 68.75,-31.035 68.75,-68.75c-0.046,-37.698 -31.053,-68.704 -68.75,-68.75Z" style="fill:#fff;fill-rule:nonzero;"/><path d="M1092.48,270.867c-16.883,11.638 -36.912,17.873 -57.418,17.873c-37.015,-0 -71.189,-20.315 -88.873,-52.832l-172.292,159.042c13.692,8.938 25.016,21.063 33,35.333l143.125,-132.083l10.708,7.375l-205.416,505.667l-12.875,-2.5l-0,-230.667c-15.873,3.916 -32.462,3.916 -48.334,-0l0,229.708l-12.875,2.5l-204.916,-504.708l10.708,-7.375l143.125,132.083c7.98,-14.259 19.288,-26.382 32.958,-35.333l-172.166,-159.042c-17.685,32.517 -51.858,52.832 -88.873,52.832c-20.506,-0 -40.536,-6.235 -57.419,-17.873l-223.292,595.25c30.903,3.539 58.499,21.161 74.709,47.708l153.208,-153c-13.941,-8.529 -25.608,-20.31 -34,-34.333l-121.958,121.75l-11,-7.125l182.541,-486.625l12.917,2.375l-0,219.291c15.872,-3.916 32.461,-3.916 48.333,0l0,-231.541l12.834,-2.5l205.208,505.083l-10.708,7.417l-142.5,-131.667c-7.827,14.352 -19.006,26.604 -32.584,35.708l171.917,158.709c17.855,-31.991 51.739,-51.883 88.375,-51.883c36.636,-0 70.52,19.892 88.375,51.883l171.917,-158.667c-13.59,-9.103 -24.783,-21.354 -32.625,-35.708l-142.875,131.625l-10.709,-7.417l205.334,-505.083l12.875,2.5l-0,231.541c15.872,-3.916 32.461,-3.916 48.333,0l-0,-219.291l12.917,-2.375l182.5,486.625l-10.959,7.041l-121.75,-121.75c-8.407,14.025 -20.089,25.806 -34.041,34.334l153,153.125c16.195,-26.587 43.818,-44.232 74.75,-47.75l-223.209,-595.25Z" style="fill:#fff;fill-rule:nonzero;"/></g></svg>
