<?xml version="1.0" encoding="UTF-8" standalone="no"?>
<!DOCTYPE svg PUBLIC "-//W3C//DTD SVG 1.1//EN" "http://www.w3.org/Graphics/SVG/1.1/DTD/svg11.dtd">
<svg width="100%" height="100%" viewBox="0 0 448 392" version="1.1" xmlns="http://www.w3.org/2000/svg" xmlns:xlink="http://www.w3.org/1999/xlink" xml:space="preserve" xmlns:serif="http://www.serif.com/" style="fill-rule:evenodd;clip-rule:evenodd;stroke-linejoin:round;stroke-miterlimit:2;">
    <rect id="Artboard1" x="0" y="0" width="448" height="392" style="fill:none;"/>
    <g id="Remix-Logo" serif:id="Remix Logo">
        <path d="M224.621,372L118.621,265L224.621,300L331.621,265L224.621,372Z"/>
        <path d="M99.02,244.718C103.08,253.481 107.488,261 107.488,261C107.488,261 56.429,271.834 41.499,254.1C26.568,236.366 14.29,187.388 22.787,161.862C29.269,142.387 62.617,143.795 65.928,143.984C83.624,72.81 148.004,20 224.621,20C301.227,20 365.599,72.795 383.306,143.953C388.911,143.711 419.64,143.251 425.834,161.862C434.331,187.388 422.053,236.366 407.122,254.1C392.192,271.834 341.133,261 341.133,261C341.133,261 344.694,255.861 348.555,248.165L348.482,248.156C349.057,247.057 349.619,245.949 350.165,244.833C351.392,242.193 352.575,239.572 353.717,236.973C360.553,220.502 364.327,202.444 364.327,183.512C364.327,106.405 301.727,43.805 224.621,43.805C147.515,43.805 84.914,106.405 84.914,183.512C84.914,197.551 86.99,211.11 90.85,223.897C93.767,232.151 96.572,239.434 99.02,244.718Z"/>
        <path d="M119.065,241.151C113.058,230.365 108.683,218.563 106.272,206.074L130.808,192.304L104.121,183.716C104.121,183.644 104.121,183.572 104.121,183.5C104.121,173.766 105.297,164.302 107.516,155.24L134.176,152.974L114.513,134.913C118.499,126.052 123.54,117.76 129.479,110.193L153.786,118.588L143.394,95.261C150.678,88.662 158.781,82.937 167.533,78.255L185.836,95.2L185.923,70.306C194.923,67.277 204.401,65.275 214.212,64.441L224.621,86.894L234.856,64.426C244.658,65.245 254.128,67.23 263.124,70.241L263.35,95.2L282.18,78.509C290.77,83.153 298.728,88.805 305.893,95.302L295.458,118.588L319.957,110.442C325.73,117.837 330.648,125.921 334.564,134.548L314.85,152.63L341.65,154.933C343.913,164.07 345.116,173.618 345.121,183.441L319.033,191.961L343.141,205.171C340.738,218.155 336.217,230.407 329.946,241.562L224.621,276.899L119.065,241.151Z"/>
    </g>
</svg>
